<?xml version="1.0" encoding="UTF-8"?>
<!-- Generator: Adobe Illustrator 16.0.3, SVG Export Plug-In . SVG Version: 6.00 Build 0)  -->
<!DOCTYPE svg PUBLIC "-//W3C//DTD SVG 1.1//EN" "http://www.w3.org/Graphics/SVG/1.1/DTD/svg11.dtd">
<svg version="1.1" id="Layer_1" xmlns="http://www.w3.org/2000/svg" xmlns:xlink="http://www.w3.org/1999/xlink" x="0px" y="0px" width="298px" height="58px" viewBox="0 -1.5 298 58" enable-background="new 0 -1.5 298 58" xml:space="preserve">
<g>
	<path fill="#22408E" d="M31.431,38.25h3.55c2.07,0,3.992-0.438,5.471-1.768l-0.444,2.804c-0.888,0.149-1.923,0.149-3.106,0.149   h-9.168c0.739-1.033,0.739-2.66,0.739-4.141v-11.83c0-1.479,0-3.106-0.591-4.289h10.942l0.151,2.515   c-1.037-0.888-2.811-1.185-4.587-1.185h-2.957v7.543c2.367,0,5.027,0,7.393-0.144c-1.033,1.768-4.73,1.768-6.654,1.768h-0.739   V38.25L31.431,38.25z"/>
	<path fill="#22408E" d="M46.518,35.296c0,1.479,0,3.106,0.738,4.142h-4.291c0.741-1.035,0.741-2.66,0.741-4.142V23.465   c0-1.479,0-3.106-0.591-4.289h9.762c0.738,0,1.477,0,1.477,0.297v2.513h-0.147c-0.888-1.479-2.959-1.479-4.437-1.479h-3.253v8.132   c2.513,0,5.027,0,7.54-0.144c-1.181,1.776-4.731,1.776-6.654,1.776h-0.886L46.518,35.296L46.518,35.296L46.518,35.296z"/>
	<path fill="#C5942C" d="M13.24,17.4c-0.147,0.297,0,0.593,0.147,0.593c0.297,0.147,0.444,0,0.591-0.149   c0.149-0.146,6.507-12.867,22.332-12.867c16.417,0,23.071,13.607,23.665,22.629c0.294,4.878-1.333,10.947-4.439,15.822   c-2.662,4.141-7.542,9.318-15.381,10.506c-0.294,0-0.444,0.295-0.444,0.59c0,0.149,0.297,0.444,0.593,0.293   c13.014-1.48,22.922-13.014,22.922-26.768c0-14.938-11.684-27.063-26.028-27.063h-0.147c-10.354,0-19.819,6.504-23.813,16.415   L13.24,17.4L13.24,17.4z"/>
	<path fill="#22408E" d="M12.207,39.884c3.548,7.979,11.09,13.897,20.407,14.933c0.149,0.151,0.444-0.144,0.444-0.293   c0-0.295-0.147-0.59-0.444-0.59c-7.69-1.037-12.717-5.623-15.379-9.471c-1.628-2.509-2.809-5.177-3.55-7.98l5.619-13.461   c0.149-0.294,0.297-0.442,0.444-0.442c0.297,0,0.297,0.295,0.297,0.589v10.646c0,1.774,0,4.141-0.591,5.621h4.583   c-0.592-1.187-0.739-2.66-0.886-4.141c-0.444-3.847-0.297-7.69-0.297-11.535c0-1.626-0.147-3.255,0.591-4.585h-3.253   c-0.739,0-1.036,0.739-1.183,1.33l-5.621,13.31c-0.147,0.445-0.294,0.74-0.444,0.74c-0.295,0-0.442-0.59-0.589-1.035L7.916,19.767   c-0.147-0.444-0.591-0.591-1.034-0.591H2.739C3.48,19.767,3.48,20.212,3.48,20.95v7.989c0,3.4,0,8.427-1.185,10.203L2,39.438h3.697   c-0.591-1.035-0.591-3.105-0.591-5.472V23.612c0-0.444,0-1.035,0.295-1.035c0.296,0,0.444,0.739,0.741,1.626L12.207,39.884   L12.207,39.884L12.207,39.884z"/>
	<path fill="#22408E" d="M86.447,9.71c-0.444,0.888-0.444,1.923-0.444,2.958c0,2.366-0.147,4.731,0.147,7.246   c0.149,0.888,0.149,1.776,0.593,2.515h-2.959c0.444-1.035,0.444-2.367,0.444-3.55v-6.655c0-0.149,0-0.444-0.147-0.444   c-0.149,0-0.149,0.146-0.297,0.294l-4.438,10.649l-3.696-9.761c-0.297-0.591-0.443-1.183-0.591-1.183   c-0.149,0-0.149,0.444-0.149,0.739v6.507c0,1.479,0,2.81,0.443,3.403h-2.365l0.147-0.296c0.741-1.036,0.741-4.14,0.741-6.211   v-5.027c0-0.593,0-0.888-0.444-1.185h2.513c0.149,0,0.444,0.147,0.591,0.297l2.958,8.725c0,0.297,0.147,0.591,0.295,0.591   c0.149,0,0.149-0.149,0.296-0.444l3.401-8.283c0.294-0.442,0.444-0.886,0.888-0.886L86.447,9.71L86.447,9.71L86.447,9.71z"/>
	<path fill="#22408E" d="M89.997,10.007l0.886,1.33l-1.477,0.888l-0.888-1.33L89.997,10.007L89.997,10.007z M90.441,13.26v7.098   c0,0.739,0,1.479,0.441,2.071h-2.218c0.296-0.591,0.296-1.332,0.296-2.071v-5.472c0-0.591,0-1.035-0.444-1.332L90.441,13.26   L90.441,13.26L90.441,13.26z"/>
	<path fill="#22408E" d="M94.877,13.407v0.741c0,0.147,0,0.295,0.147,0.295s1.035-1.183,2.515-1.183   c1.626,0,2.515,0.738,2.515,2.662v4.437c0,0.739,0,1.479,0.295,2.071h-1.776v-5.473c0-1.181-0.147-2.663-1.774-2.663   s-1.921,1.481-1.921,2.812v3.253c0,0.739,0,1.478,0.444,2.071h-2.218c0.294-0.593,0.294-1.332,0.294-2.071v-4.733   c0-0.888,0-1.627-0.294-2.071L94.877,13.407L94.877,13.407L94.877,13.407z"/>
	<path fill="#22408E" d="M104.046,10.007l0.886,1.33l-1.477,0.888l-0.888-1.33L104.046,10.007L104.046,10.007z M104.49,13.26v7.098   c0,0.739,0,1.479,0.295,2.071h-2.218c0.444-0.591,0.444-1.332,0.444-2.071v-5.472c0-0.591,0-1.035-0.444-1.332L104.49,13.26   L104.49,13.26L104.49,13.26z"/>
	<path fill="#22408E" d="M112.771,19.917c0,1.921-1.921,2.81-3.55,2.81c-0.739,0-1.478-0.149-2.219-0.444   c-0.147,0-0.294-0.147-0.294-0.444c0-0.444,0-0.888,0-1.332c0.739,0.888,1.183,1.629,2.513,1.629c1.185,0,1.776-0.593,1.776-1.774   c0-2.368-3.845-2.071-3.845-5.03c0-1.479,1.183-2.07,2.957-2.07c0.591,0,1.185,0.149,1.774,0.294c0.149,0,0.297,0,0.297,0.149   c0,0.294,0,0.888,0,1.332c-0.741-1.038-1.183-1.185-2.071-1.185c-0.739,0-1.479,0.444-1.479,1.185   C108.63,17.402,112.771,17.105,112.771,19.917L112.771,19.917L112.771,19.917z"/>
	<path fill="#22408E" d="M116.322,10.745v2.81h1.626c0.147,0,0.295,0,0.295,0.149c0,0.444-0.886,0.589-1.478,0.589h-0.444v6.065   c0,0.739,0.147,1.332,1.035,1.332c0.295,0,0.886-0.296,1.183-0.593l-0.147,0.888c0,0.149-0.888,0.741-1.628,0.741   c-1.33,0-1.774-0.741-1.774-2.071v-6.36h-0.888v-0.591l0.888-0.149V11.19l1.33-0.444L116.322,10.745L116.322,10.745z"/>
	<path fill="#22408E" d="M121.499,16.661c0,0.444,0,0.739,0,1.183c0,1.776,0.738,3.55,2.809,3.55c1.034,0,1.922-0.297,2.515-0.888   v0.297c0,1.033-1.776,1.921-3.255,1.921c-2.513,0-3.845-2.366-3.845-4.731c0-2.515,1.479-4.733,4.289-4.733   c1.774,0,2.957,1.33,2.957,2.515c0,0.886-0.591,0.886-1.921,0.886H121.499L121.499,16.661L121.499,16.661z M123.716,16.069   c1.036,0,1.478,0,1.478-0.739c0-0.739-0.589-1.479-1.478-1.479c-1.33,0-1.776,1.183-2.071,2.218H123.716L123.716,16.069z"/>
	<path fill="#22408E" d="M129.041,16.811c0-1.48,0-2.812-0.593-3.256c0.741,0,1.481-0.147,1.628-0.147   c0.444,0,0.147,1.036,0.444,1.036c0,0,0.739-1.183,1.921-1.183c0.741,0,1.036,0.294,1.036,0.738s-0.147,0.739-0.739,0.739   c-0.297,0-0.741-0.147-1.185-0.147c-1.034,0-1.034,0.741-1.034,1.627v4.142c0,0.739,0,1.479,0.295,2.071h-2.218   c0.444-0.591,0.444-1.332,0.444-2.071L129.041,16.811L129.041,16.811L129.041,16.811z"/>
	<path fill="#22408E" d="M138.063,22.726c-2.664,0-3.847-2.22-3.847-4.289c0-3.106,1.774-5.177,4.732-5.177   c2.81,0,3.845,2.218,3.845,4.438C142.793,20.803,141.02,22.726,138.063,22.726L138.063,22.726z M138.802,22.135   c1.774,0,2.365-1.923,2.365-3.55c0-2.368-0.739-4.586-2.81-4.586c-1.923,0-2.367,1.776-2.367,3.551   C135.99,19.767,136.583,22.135,138.802,22.135L138.802,22.135z"/>
	<path fill="#22408E" d="M79.202,46.534v-0.741l-0.149-0.143c-0.147,0-0.888,1.033-2.662,1.033c-2.367,0-3.401-2.365-3.401-4.436   c0-3.258,2.071-5.033,5.175-5.033c0.297,0,0.591,0,1.036,0v-2.51c0-0.74,0-1.48-0.444-1.928l1.923-0.295v11.686   c0,0.74,0,1.632,0.297,2.221L79.2,46.534H79.202L79.202,46.534z M79.202,39.286c0-0.884-0.297-1.331-1.332-1.331   c-2.219,0-3.401,1.634-3.401,3.848c0,1.776,0.886,3.848,2.957,3.848c1.183,0,1.776-0.885,1.776-1.92V39.286L79.202,39.286   L79.202,39.286z"/>
	<path fill="#22408E" d="M84.376,40.624c0,0.438-0.147,0.731-0.147,1.179c0,1.776,0.886,3.553,2.958,3.553   c0.886,0,1.921-0.445,2.365-0.893v0.151c0,1.036-1.628,2.069-3.106,2.069c-2.662,0-3.845-2.365-3.845-4.729   c0-2.668,1.479-4.738,4.142-4.738c1.921,0,3.104,1.187,3.104,2.517c0,0.893-0.739,0.893-1.923,0.893L84.376,40.624L84.376,40.624z    M86.447,40.025c1.036,0,1.627,0,1.627-0.739c0-0.733-0.591-1.474-1.627-1.474c-1.183,0-1.774,1.179-1.923,2.213H86.447   L86.447,40.025z"/>
	<path fill="#22408E" d="M91.624,46.391c0.295-0.598,0.295-1.48,0.295-2.222v-9.463c0-0.74,0-1.481-0.445-1.927l1.924-0.295v11.685   c0,0.74,0,1.624,0.444,2.222H91.624L91.624,46.391z"/>
	<path fill="#22408E" d="M96.355,46.391c0.444-0.598,0.444-1.48,0.444-2.222v-9.463c0-0.74,0-1.481-0.589-1.927l2.069-0.295v11.685   c0,0.74,0,1.624,0.294,2.222H96.355L96.355,46.391z"/>
	<path fill="#22408E" d="M101.679,37.813c0-0.74-0.294-3.256-0.294-3.703c0-0.295,0.147-0.731,0.739-0.731   c0.444,0,0.741,0.438,0.741,0.731c0,0.447-0.297,2.963-0.444,3.703c0,0.144,0,0.59-0.296,0.59   C101.828,38.402,101.679,37.955,101.679,37.813L101.679,37.813z"/>
	<path fill="#22408E" d="M107.596,45.498h2.219c1.33,0,2.513-0.295,3.548-1.035l-0.442,1.776c-0.446,0-1.185,0.149-1.923,0.149   h-5.769c0.444-0.738,0.591-1.774,0.591-2.658v-7.399c0-0.884,0-1.92-0.444-2.66h6.951v1.474c-0.591-0.588-1.776-0.732-2.957-0.732   h-1.774v4.875c1.478,0,3.104,0,4.731-0.145c-0.739,1.035-2.957,1.035-4.289,1.035h-0.443L107.596,45.498L107.596,45.498   L107.596,45.498z"/>
	<path fill="#22408E" d="M121.202,39.438h-0.147c-0.444-0.885-0.741-1.481-1.923-1.481c-1.774,0-2.809,1.776-2.809,3.999   c0,1.92,0.74,3.544,2.958,3.544c0.737,0,1.625-0.295,2.218-0.884v0.445c0,1.035-1.481,1.625-2.959,1.625   c-2.515,0-3.992-2.07-3.992-4.437c0-2.963,1.921-5.033,4.88-5.033c0.888,0,1.774,0.15,1.774,0.302V39.438L121.202,39.438z"/>
	<path fill="#22408E" d="M126.229,46.686c-2.662,0-3.845-2.223-3.845-4.437c0-3.106,1.774-5.033,4.733-5.033   c2.809,0,3.845,2.222,3.845,4.443C130.962,44.614,129.335,46.686,126.229,46.686L126.229,46.686z M126.97,45.943   c1.774,0,2.365-1.774,2.365-3.551c0-2.216-0.739-4.438-2.809-4.438c-1.921,0-2.368,1.776-2.368,3.401   C124.159,43.73,124.899,45.943,126.97,45.943L126.97,45.943L126.97,45.943z"/>
	<path fill="#22408E" d="M134.216,37.366v0.741c0,0.143,0,0.295,0.149,0.295c0.147,0,1.036-1.188,2.66-1.188   c1.482,0,2.37,0.739,2.37,2.516v4.438c0,0.74,0,1.624,0.294,2.222h-1.776v-5.472c0-1.33-0.147-2.669-1.774-2.669   s-1.921,1.48-1.921,2.813v3.106c0,0.74,0,1.624,0.442,2.222h-2.218c0.297-0.598,0.297-1.48,0.297-2.222v-4.731   c0-0.74,0-1.481-0.297-1.92l1.776-0.15L134.216,37.366L134.216,37.366z"/>
	<path fill="#22408E" d="M145.014,46.686c-2.664,0-3.847-2.223-3.847-4.437c0-3.106,1.776-5.033,4.732-5.033   c2.809,0,3.844,2.222,3.844,4.443C149.744,44.614,147.97,46.686,145.014,46.686L145.014,46.686z M145.752,45.943   c1.774,0,2.365-1.774,2.365-3.551c0-2.216-0.739-4.438-2.81-4.438c-1.921,0-2.365,1.776-2.365,3.401   C142.943,43.73,143.534,45.943,145.752,45.943L145.752,45.943L145.752,45.943z"/>
	<path fill="#22408E" d="M151.52,39.438c0-0.74,0-1.481-0.443-1.92l2.069-0.15v0.74c0,0.144,0,0.295,0.15,0.295   c0,0,1.179-1.187,2.365-1.187c1.772,0,1.92,1.479,2.219,1.479c0.146,0,1.035-1.479,2.512-1.479c1.331,0,2.219,0.739,2.219,2.517   v4.438c0,0.74,0,1.624,0.295,2.221h-1.772V40.92c0-1.338-0.147-2.669-1.477-2.669c-1.63,0-1.924,1.331-1.924,2.813v3.105   c0,0.74,0,1.624,0.442,2.221h-2.219c0.442-0.597,0.442-1.479,0.442-2.221v-3.25c0-1.338-0.295-2.669-1.625-2.669   c-1.478,0-1.776,1.331-1.776,2.813v3.105c0,0.74,0,1.624,0.299,2.221h-2.07c0.294-0.597,0.294-1.479,0.294-2.221V39.438   L151.52,39.438L151.52,39.438z"/>
	<path fill="#22408E" d="M166.458,33.814l1.036,1.33l-1.481,1.035l-0.888-1.33L166.458,33.814L166.458,33.814L166.458,33.814z    M167.047,37.216v6.953c0,0.74,0,1.624,0.299,2.222h-2.222c0.445-0.598,0.445-1.48,0.445-2.222v-5.321c0-0.74,0-1.035-0.445-1.33   L167.047,37.216L167.047,37.216z"/>
	<path fill="#22408E" d="M174.442,46.534c-0.146-0.741-0.146-1.331-0.295-1.331c0,0,0,0.152-0.146,0.152   c-0.446,0.739-0.888,1.328-2.219,1.328c-1.481,0-2.517-0.74-2.517-2.222c0-1.769,2.218-2.509,3.553-3.106   c1.183-0.438,1.478-0.588,1.478-1.768c0-1.036-0.443-1.775-1.63-1.775c-1.919,0-1.03,1.918-2.365,1.918   c-0.441,0-0.74-0.295-0.74-0.739c0-1.33,2.075-1.769,3.553-1.769c1.329,0,2.659,0.295,2.659,1.625v4.284   c0,1.187-0.147,2.365,0.446,3.257L174.442,46.534L174.442,46.534L174.442,46.534z M172.523,45.498c1.179,0,1.772-1.035,1.772-2.07   v-2.07l-1.183,0.598c-1.331,0.74-2.219,1.036-2.219,2.215C170.894,45.061,171.635,45.498,172.523,45.498L172.523,45.498z"/>
	<path fill="#22408E" d="M184.501,40.624c-0.151,0.295-0.151,0.59-0.151,1.035c0,1.92,0.888,3.696,2.958,3.696   c0.889,0,1.924-0.446,2.365-1.037v0.296c0,1.036-1.625,2.069-3.105,2.069c-2.659,0-3.842-2.365-3.842-4.882   s1.477-4.731,4.141-4.731c1.922,0,3.105,1.332,3.105,2.66c0,0.894-0.74,0.894-1.924,0.894H184.501L184.501,40.624z M186.573,40.025   c1.034,0,1.476,0,1.476-0.739c0-0.733-0.441-1.625-1.476-1.625c-1.188,0-1.776,1.33-1.925,2.364H186.573L186.573,40.025z"/>
	<path fill="#22408E" d="M202.545,46.534l-0.146-0.741V45.65c-0.151,0-0.893,1.033-2.813,1.033c-2.365,0-3.4-2.365-3.4-4.436   c0-3.258,2.066-5.178,5.172-5.178c0.447,0,0.742,0.145,1.041,0.145v-2.51c0-0.893,0-1.624-0.446-2.07l1.924-0.295v11.828   c0,0.74,0,1.632,0.44,2.07L202.545,46.534L202.545,46.534z M202.398,39.286c0-0.884-0.152-1.474-1.188-1.474   c-2.219,0-3.399,1.623-3.399,3.989c0,1.776,0.887,3.849,2.957,3.849c1.184,0,1.631-0.894,1.631-2.071V39.286L202.398,39.286   L202.398,39.286z"/>
	<path fill="#22408E" d="M207.57,40.624c0,0.295,0,0.59,0,1.035c0,1.92,0.887,3.696,2.959,3.696c0.889,0,1.924-0.446,2.365-1.037   v0.296c0,1.036-1.773,2.069-3.105,2.069c-2.66,0-3.844-2.365-3.844-4.882s1.33-4.731,4.143-4.731c1.92,0,2.953,1.332,2.953,2.66   c0,0.894-0.588,0.894-1.924,0.894H207.57L207.57,40.624z M209.789,40.025c1.035,0,1.48,0,1.48-0.739   c0-0.733-0.445-1.625-1.48-1.625c-1.332,0-1.773,1.33-2.072,2.364H209.789L209.789,40.025z"/>
	<path fill="#22408E" d="M214.818,46.239c0.44-0.446,0.44-1.33,0.44-2.07v-9.463c0-0.892,0-1.624-0.588-2.07l2.07-0.295v11.828   c0,0.74,0,1.632,0.295,2.07H214.818L214.818,46.239z"/>
	<path fill="#22408E" d="M219.697,46.239c0.297-0.446,0.297-1.33,0.297-2.07v-9.463c0-0.892,0-1.624-0.445-2.07l1.924-0.295v11.828   c0,0.74,0,1.632,0.445,2.07H219.697L219.697,46.239z"/>
	<path fill="#22408E" d="M225.613,40.624c0,0.295,0,0.59,0,1.035c0,1.92,0.889,3.696,2.959,3.696c0.889,0,1.924-0.446,2.365-1.037   v0.296c0,1.036-1.629,2.069-3.105,2.069c-2.66,0-3.848-2.365-3.848-4.882s1.334-4.731,4.143-4.731c1.924,0,2.959,1.332,2.959,2.66   c0,0.894-0.59,0.894-1.777,0.894H225.613L225.613,40.624z M227.832,40.025c1.035,0,1.48,0,1.48-0.739   c0-0.733-0.445-1.625-1.48-1.625c-1.184,0-1.773,1.33-2.072,2.364H227.832L227.832,40.025z"/>
	<path fill="#22408E" d="M239.961,43.73c0,0.884,0,1.92,0.443,2.509h-2.66c0.441-0.589,0.441-1.625,0.441-2.509V36.18   c0-0.884,0-1.919-0.441-2.509h6.207c0.447,0,0.889,0,0.889,0.144v1.481l0,0c-0.588-0.885-1.924-0.885-2.811-0.885h-2.068v5.17   c1.479,0,3.105,0,4.732-0.146c-0.742,1.037-2.959,1.037-4.289,1.037h-0.443v3.248V43.73L239.961,43.73z"/>
	<path fill="#22408E" d="M248.24,33.814l0.889,1.33l-1.479,0.893l-0.887-1.188L248.24,33.814L248.24,33.814z M248.688,37.07v7.099   c0,0.74,0,1.624,0.441,2.07h-2.219c0.295-0.446,0.295-1.33,0.295-2.07v-5.321c0-0.74,0-1.187-0.441-1.48L248.688,37.07   L248.688,37.07z"/>
	<path fill="#22408E" d="M253.123,37.366v0.589c0,0.152,0,0.447,0.146,0.447c0.147,0,1.037-1.332,2.664-1.332   c1.479,0,2.364,0.742,2.364,2.66v4.438c0,0.74,0,1.632,0.295,2.07h-1.774v-5.32c0-1.33-0.146-2.669-1.771-2.669   c-1.629,0-1.924,1.331-1.924,2.669v3.25c0,0.74,0,1.624,0.441,2.07h-2.217c0.295-0.446,0.295-1.33,0.295-2.07v-4.731   c0-0.885,0-1.625-0.295-2.07L253.123,37.366L253.123,37.366L253.123,37.366z"/>
	<path fill="#22408E" d="M265.396,46.391c-0.148-0.74-0.148-1.188-0.295-1.188c-0.148,0-0.148,0-0.148,0   c-0.445,0.74-0.887,1.48-2.365,1.48c-1.332,0-2.369-0.892-2.369-2.222c0-1.774,2.219-2.509,3.553-3.106   c1.183-0.588,1.478-0.588,1.478-1.92c0-1.033-0.44-1.774-1.627-1.774c-1.92,0-1.033,1.92-2.365,1.92   c-0.442,0-0.741-0.146-0.741-0.59c0-1.474,1.924-1.921,3.553-1.921c1.33,0,2.514,0.296,2.514,1.625v4.438   c0,1.188,0,2.365,0.592,3.106L265.396,46.391L265.396,46.391L265.396,46.391z M263.326,45.498c1.186,0,1.922-1.035,1.922-2.214   v-1.929l-1.182,0.446c-1.479,0.74-2.219,1.188-2.219,2.222C261.848,45.061,262.438,45.498,263.326,45.498L263.326,45.498z"/>
	<path fill="#22408E" d="M270.426,37.366v0.589c0,0.152,0,0.447,0.146,0.447c0.148,0,1.037-1.332,2.514-1.332   c1.629,0,2.516,0.742,2.516,2.66v4.438c0,0.74,0,1.632,0.295,2.07h-1.774v-5.32c0-1.33-0.146-2.669-1.771-2.669   c-1.629,0-1.925,1.331-1.925,2.669v3.25c0,0.74,0,1.624,0.441,2.07h-2.218c0.3-0.446,0.3-1.33,0.3-2.07v-4.731   c0-0.885,0-1.625-0.447-2.07L270.426,37.366L270.426,37.366z"/>
	<path fill="#22408E" d="M285.068,37.366l-5.771,7.989c-0.147,0-0.147,0.143-0.147,0.143c0,0.152,0,0.152,0.295,0.152h2.518   c1.33,0,2.658-0.295,3.4-1.036l-0.295,1.625h-8.135l5.616-7.837c0.152,0,0.3-0.152,0.3-0.295c0,0-0.15,0-0.445,0h-2.219   c-1.035,0-1.623,0.295-2.365,0.884l0.146-1.625H285.068L285.068,37.366L285.068,37.366z"/>
	<path fill="#22408E" d="M288.174,40.624c0,0.295,0,0.59,0,1.035c0,1.92,0.885,3.696,2.955,3.696c0.889,0,1.924-0.446,2.371-1.037   v0.296c0,1.036-1.631,2.069-3.107,2.069c-2.664,0-3.846-2.365-3.846-4.882s1.328-4.731,4.141-4.731c1.922,0,2.959,1.332,2.959,2.66   c0,0.894-0.594,0.894-1.776,0.894H288.174L288.174,40.624z M290.393,40.025c1.031,0,1.478,0,1.478-0.739   c0-0.733-0.445-1.625-1.478-1.625c-1.188,0-1.774,1.33-2.069,2.364H290.393L290.393,40.025z"/>
</g>
</svg>